<svg version="1.1" xmlns="http://www.w3.org/2000/svg" viewBox="0 0 220.16914525786456 211.5648005741745" width="220.16914525786456" height="211.5648005741745">
  <!-- svg-source:excalidraw -->
  
  <defs>
    <style class="style-fonts">
      @font-face {
        font-family: "Virgil";
        src: url("https://excalidraw.com/Virgil.woff2");
      }
      @font-face {
        font-family: "Cascadia";
        src: url("https://excalidraw.com/Cascadia.woff2");
      }
      @font-face {
        font-family: "Assistant";
        src: url("https://excalidraw.com/Assistant-Regular.woff2");
      }
    </style>
    
  </defs>
  <rect x="0" y="0" width="220.16914525786456" height="211.5648005741745" fill="#ffffff"></rect><g stroke-linecap="round" transform="translate(56.35717383653423 99.43532430993758) rotate(0 5.384902640659163 5.384902640659163)"><path d="M0.37 1.65 C0.37 1.65, 0.37 1.65, 0.37 1.65 M0.37 1.65 C0.37 1.65, 0.37 1.65, 0.37 1.65 M2.63 10.32 C4.67 7.28, 7.17 5.36, 11.01 3.17 M3.28 10.74 C4.86 7.52, 8.08 5.57, 10.1 2.03 M1.33 9.14 C1.33 9.14, 1.33 9.14, 1.33 9.14 M1.33 9.14 C1.33 9.14, 1.33 9.14, 1.33 9.14 M10.18 6.26 C6.87 4.46, 4.98 1.14, 1.94 0.79 M10.01 6.6 C8.1 4.77, 5.48 2.12, 2.94 -0.23" stroke="#a5d8ff" stroke-width="1" fill="none"></path><path d="M4.3 -0.39 C5.48 -0.57, 7.06 0.31, 8.21 0.88 C9.37 1.46, 11.02 1.82, 11.25 3.06 C11.47 4.31, 10.32 7.09, 9.59 8.35 C8.85 9.6, 7.86 10.22, 6.83 10.6 C5.8 10.98, 4.29 10.85, 3.41 10.64 C2.53 10.43, 2.13 10.41, 1.56 9.33 C0.98 8.26, 0.12 5.51, -0.04 4.17 C-0.19 2.84, -0.19 2.13, 0.65 1.33 C1.5 0.52, 4.19 -0.49, 5.04 -0.65 C5.89 -0.81, 5.61 0.23, 5.74 0.35 M5.16 -1.34 C6.18 -1.6, 8.32 -1.7, 9.32 -0.73 C10.32 0.24, 11.03 3.35, 11.18 4.51 C11.33 5.66, 10.79 5.33, 10.23 6.18 C9.67 7.03, 8.71 9.03, 7.8 9.62 C6.9 10.2, 5.78 9.84, 4.81 9.69 C3.84 9.54, 2.81 9.2, 1.96 8.71 C1.12 8.23, -0.17 8.13, -0.26 6.79 C-0.35 5.45, 0.62 1.77, 1.44 0.69 C2.26 -0.39, 4.11 0.49, 4.65 0.31 C5.19 0.13, 4.6 -0.23, 4.69 -0.39" stroke="#2f9e44" stroke-width="2" fill="none"></path></g><g stroke-linecap="round"><g transform="translate(74.57294962833976 10) rotate(0 -32.23905758011705 32.17323784430161)"><path d="M0 0 C-10.75 10.72, -53.73 53.62, -64.48 64.35 M0 0 C-10.75 10.72, -53.73 53.62, -64.48 64.35" stroke="#1e1e1e" stroke-width="2" fill="none"></path></g></g><mask></mask><g stroke-linecap="round"><g transform="translate(207.78250080783914 137.75175737016895) rotate(0 -30.99033031589272 30.990330315892777)"><path d="M0 0 C-10.33 10.33, -51.65 51.65, -61.98 61.98 M0 0 C-10.33 10.33, -51.65 51.65, -61.98 61.98" stroke="#1e1e1e" stroke-width="2" fill="none"></path></g></g><mask></mask><g stroke-linecap="round"><g transform="translate(209.89166141617488 10.805143679934588) rotate(0 0 62.82386414102285)"><path d="M0 0 C0 20.94, 0 104.71, 0 125.65 M0 0 C0 20.94, 0 104.71, 0 125.65" stroke="#1e1e1e" stroke-width="2" fill="none"></path></g></g><mask></mask><g stroke-linecap="round"><g transform="translate(75.14651153759041 10.209030321291323) rotate(0 67.31128300823877 0)"><path d="M0 0 C22.44 0, 112.19 0, 134.62 0 M0 0 C22.44 0, 112.19 0, 134.62 0" stroke="#1e1e1e" stroke-width="2" fill="none"></path></g></g><mask></mask><g stroke-linecap="round"><g transform="translate(48.035318830471965 163.86650712799434) rotate(0 66.73708648813823 0)"><path d="M0 0 C22.25 0, 111.23 0, 133.47 0 M0 0 C22.25 0, 111.23 0, 133.47 0" stroke="#f08c00" stroke-width="2" fill="none"></path></g></g><mask></mask><g stroke-linecap="round"><g transform="translate(46.0778662612355 38.47704500313006) rotate(0 0 62.82386414102285)"><path d="M0 0 C0 20.94, 0 104.71, 0 125.65 M0 0 C0 20.94, 0 104.71, 0 125.65" stroke="#f08c00" stroke-width="2" fill="none"></path></g></g><mask></mask><g stroke-linecap="round"><g transform="translate(180.86203750290588 38.030836019995945) rotate(0 0 62.82386414102288)"><path d="M0 0 C0 20.94, 0 104.71, 0 125.65 M0 0 C0 20.94, 0 104.71, 0 125.65" stroke="#f08c00" stroke-width="2" fill="none"></path></g></g><mask></mask><g stroke-linecap="round"><g transform="translate(140.19990976513782 138.0319147626265) rotate(0 -30.990330315892777 30.990330315892777)"><path d="M0 0 C-10.33 10.33, -51.65 51.65, -61.98 61.98 M0 0 C-10.33 10.33, -51.65 51.65, -61.98 61.98" stroke="#f08c00" stroke-width="2" fill="none"></path></g></g><mask></mask><g stroke-linecap="round"><g transform="translate(140.0598803003063 11.932386932144539) rotate(0 0 62.82386414102285)"><path d="M0 0 C0 20.94, 0 104.71, 0 125.65 M0 0 C0 20.94, 0 104.71, 0 125.65" stroke="#f08c00" stroke-width="2" fill="none"></path></g></g><mask></mask><g stroke-linecap="round"><g transform="translate(140.14608095835933 10.238655525833167) rotate(0 -30.200493486107803 31.911806617308628)"><path d="M0 0 C-10.07 10.64, -50.33 53.19, -60.4 63.82 M0 0 C-10.07 10.64, -50.33 53.19, -60.4 63.82" stroke="#f08c00" stroke-width="2" fill="none"></path></g></g><mask></mask><g stroke-linecap="round"><g transform="translate(46.022029656017594 91.15268960588315) rotate(0 66.64196953353758 0)"><path d="M0 0 C22.21 0, 111.07 0, 133.28 0 M0 0 C22.21 0, 111.07 0, 133.28 0" stroke="#f08c00" stroke-width="2" fill="none"></path></g></g><mask></mask><g stroke-linecap="round"><g transform="translate(140.59228994149362 64.54451199657234) rotate(0 -30.990330315892777 30.990330315892777)"><path d="M0 0 C-10.33 10.33, -51.65 51.65, -61.98 61.98 M0 0 C-10.33 10.33, -51.65 51.65, -61.98 61.98" stroke="#f08c00" stroke-width="2" fill="none"></path></g></g><mask></mask><g stroke-linecap="round"><g transform="translate(74.72253478755033 62.30607410945407) rotate(0 67.67321174671872 0)"><path d="M0 0 C22.56 0, 112.79 0, 135.35 0 M0 0 C22.56 0, 112.79 0, 135.35 0" stroke="#f08c00" stroke-width="2" fill="none"></path></g></g><mask></mask><g stroke-linecap="round"><g transform="translate(135.58279512183412 142.2323717471458) rotate(0 -28.366601308570182 28.366601308570182)"><path d="M0 0 C-9.46 9.46, -47.28 47.28, -56.73 56.73 M0 0 C-9.46 9.46, -47.28 47.28, -56.73 56.73" stroke="#f08c00" stroke-width="2" fill="none"></path></g></g><mask></mask><g stroke-linecap="round"><g transform="translate(74.24725923032645 62.25523296711657) rotate(0 -30.384854391125998 30.990330315892834)"><path d="M0 0 C-10.13 10.33, -50.64 51.65, -60.77 61.98 M0 0 C-10.13 10.33, -50.64 51.65, -60.77 61.98" stroke="#f08c00" stroke-width="2" fill="none"></path></g></g><mask></mask><g stroke-linecap="round"><g transform="translate(210.16914525786456 62.603477778178956) rotate(0 -31.54162037229662 31.541620372296507)"><path d="M0 0 C-10.51 10.51, -52.57 52.57, -63.08 63.08 M0 0 C-10.51 10.51, -52.57 52.57, -63.08 63.08" stroke="#f08c00" stroke-width="2" fill="none"></path></g></g><mask></mask><g stroke-linecap="round"><g transform="translate(73.33270734797998 137.4205954063885) rotate(0 -30.990330315892777 30.990330315892777)"><path d="M0 0 C-10.33 10.33, -51.65 51.65, -61.98 61.98 M0 0 C-10.33 10.33, -51.65 51.65, -61.98 61.98" stroke="#1e1e1e" stroke-width="2" fill="none"></path></g></g><mask></mask><g stroke-linecap="round"><g transform="translate(74.6235052806926 136.88878712431455) rotate(0 67.31128300823877 0)"><path d="M0 0 C22.44 0, 112.19 0, 134.62 0 M0 0 C22.44 0, 112.19 0, 134.62 0" stroke="#1e1e1e" stroke-width="2" fill="none"></path></g></g><mask></mask><g stroke-linecap="round" transform="translate(44.47387401001265 142.45370054008964) rotate(0 5.384902640659163 5.384902640659163)"><path d="M2.01 0.42 C2.01 0.42, 2.01 0.42, 2.01 0.42 M2.01 0.42 C2.01 0.42, 2.01 0.42, 2.01 0.42 M4.28 10.4 C4.97 9.78, 6.67 7.94, 9.69 3.68 M3.53 10.65 C5.33 8.64, 7.1 7.27, 10.49 3.34 M3.71 10.97 C3.71 10.97, 3.71 10.97, 3.71 10.97 M3.71 10.97 C3.71 10.97, 3.71 10.97, 3.71 10.97 M11.53 6.15 C9.56 3.74, 5.44 3.01, 3.02 -0.34 M11.39 7.27 C8.9 4.6, 6.29 2.49, 3.23 0.48" stroke="#a5d8ff" stroke-width="1" fill="none"></path><path d="M6.47 0.76 C7.57 0.71, 8.18 0.52, 8.94 1.29 C9.7 2.05, 10.83 3.96, 11.05 5.34 C11.27 6.72, 10.98 8.64, 10.26 9.56 C9.54 10.48, 7.86 10.68, 6.73 10.88 C5.59 11.08, 4.55 11.39, 3.46 10.75 C2.36 10.11, 0.58 8.27, 0.14 7.06 C-0.29 5.85, 0.55 4.61, 0.87 3.48 C1.19 2.36, 0.88 0.99, 2.09 0.34 C3.29 -0.31, 7.14 -0.57, 8.1 -0.42 C9.07 -0.27, 8.03 1.13, 7.88 1.24 M3.06 0.85 C4.09 0.43, 4.78 1.16, 5.88 1.65 C6.98 2.15, 8.78 2.97, 9.66 3.82 C10.53 4.67, 11.46 5.72, 11.14 6.74 C10.82 7.77, 8.61 9.14, 7.75 9.96 C6.89 10.78, 6.89 11.63, 5.97 11.66 C5.04 11.7, 3.31 11.28, 2.19 10.16 C1.06 9.03, -0.71 6.1, -0.78 4.92 C-0.85 3.73, 1.09 3.64, 1.78 3.05 C2.46 2.46, 3.15 1.63, 3.31 1.36 C3.47 1.09, 2.59 1.44, 2.74 1.44" stroke="#2f9e44" stroke-width="2" fill="none"></path></g><g stroke-linecap="round" transform="translate(38.925569228540326 175.04999113124057) rotate(0 5.384902640659163 5.384902640659163)"><path d="M1.93 1.68 C1.93 1.68, 1.93 1.68, 1.93 1.68 M1.93 1.68 C1.93 1.68, 1.93 1.68, 1.93 1.68 M4.37 12.2 C6.65 8.61, 8.67 6.26, 9.7 4.18 M3.58 11.8 C5.84 9.7, 7.7 7.92, 10.22 4.3 M3.37 11.37 C3.37 11.37, 3.37 11.37, 3.37 11.37 M3.37 11.37 C3.37 11.37, 3.37 11.37, 3.37 11.37 M9.72 7.2 C8.08 4.96, 6.95 3.07, 3.17 0.15 M10.19 6.26 C7.84 4.96, 5.74 2.45, 3.47 0.98" stroke="#ffc9c9" stroke-width="1" fill="none"></path><path d="M4.76 -0.84 C5.71 -1.27, 7.25 -0.41, 8.16 0.33 C9.07 1.07, 9.83 2.28, 10.21 3.61 C10.6 4.95, 10.99 7.31, 10.47 8.34 C9.96 9.36, 8.3 9.26, 7.11 9.77 C5.92 10.27, 4.3 11.51, 3.36 11.36 C2.43 11.22, 1.97 9.78, 1.5 8.91 C1.03 8.03, 0.44 7.31, 0.53 6.09 C0.61 4.88, 1.26 2.65, 2 1.6 C2.73 0.55, 4.43 -0.11, 4.94 -0.21 C5.45 -0.32, 5.08 0.87, 5.05 0.96 M6.8 0.76 C7.8 0.98, 8.72 2.39, 9.47 3.37 C10.23 4.34, 11.6 5.49, 11.34 6.62 C11.07 7.76, 9.03 9.34, 7.86 10.17 C6.69 11, 5.19 11.48, 4.32 11.6 C3.45 11.71, 3.38 11.91, 2.64 10.87 C1.9 9.83, 0.03 6.79, -0.13 5.36 C-0.29 3.94, 1.12 3.07, 1.69 2.33 C2.25 1.59, 2.44 1.12, 3.26 0.93 C4.09 0.75, 6.21 1.53, 6.64 1.21 C7.06 0.88, 5.86 -1.09, 5.81 -1.01" stroke="#2f9e44" stroke-width="2" fill="none"></path></g><g stroke-linecap="round" transform="translate(88.5135432129506 143.4940076866156) rotate(0 5.384902640659163 5.384902640659163)"><path d="M1.6 1.39 C1.6 1.39, 1.6 1.39, 1.6 1.39 M1.6 1.39 C1.6 1.39, 1.6 1.39, 1.6 1.39 M3.17 10.81 C6.05 8.8, 6.94 8.23, 9.42 4.05 M3.41 10.89 C6.21 8.87, 8.56 6.35, 10.36 3.31 M0.5 8.57 C0.5 8.57, 0.5 8.57, 0.5 8.57 M0.5 8.57 C0.5 8.57, 0.5 8.57, 0.5 8.57 M10.93 6.76 C6.98 3.97, 4.33 1.2, 1.94 0.92 M10.5 6.71 C9.32 5.76, 6.95 4.04, 2.34 0.4" stroke="#ffc9c9" stroke-width="1" fill="none"></path><path d="M5.88 -0.87 C6.81 -0.79, 7.23 0.95, 7.91 1.65 C8.59 2.36, 9.5 2.29, 9.94 3.36 C10.39 4.44, 10.9 6.88, 10.59 8.09 C10.28 9.3, 9.06 10.13, 8.07 10.62 C7.09 11.11, 5.91 11.34, 4.68 11.02 C3.44 10.7, 1.45 9.88, 0.65 8.7 C-0.14 7.53, -0.3 5.24, -0.09 3.97 C0.12 2.69, 0.82 1.58, 1.89 1.06 C2.95 0.53, 5.8 0.88, 6.32 0.84 C6.85 0.8, 5.13 0.8, 5.06 0.82 M8.79 0.51 C9.79 0.98, 10.89 1.18, 11 2.41 C11.11 3.64, 9.94 6.78, 9.44 7.87 C8.94 8.96, 8.93 8.73, 7.99 8.96 C7.05 9.2, 4.95 9.05, 3.82 9.28 C2.68 9.52, 1.67 10.81, 1.18 10.37 C0.68 9.93, 0.77 8.23, 0.87 6.65 C0.97 5.06, 1.46 1.79, 1.77 0.88 C2.08 -0.04, 1.69 1.32, 2.73 1.15 C3.78 0.98, 7.39 -0.2, 8.04 -0.14 C8.69 -0.08, 6.91 1.45, 6.63 1.51" stroke="#2f9e44" stroke-width="2" fill="none"></path></g><g stroke-linecap="round" transform="translate(114.17445282726112 105.00264326515008) rotate(0 5.3849026406591065 5.384902640659163)"><path d="M-0.93 4.5 C-0.93 4.5, -0.93 4.5, -0.93 4.5 M-0.93 4.5 C-0.93 4.5, -0.93 4.5, -0.93 4.5 M2.64 10.34 C6.3 9.74, 7.39 7.61, 10.83 3.27 M4.18 11.38 C5.1 9.46, 8.01 7.27, 11.72 2.59 M2.11 9.77 C2.11 9.77, 2.11 9.77, 2.11 9.77 M2.11 9.77 C2.11 9.77, 2.11 9.77, 2.11 9.77 M10.57 7.05 C8.96 4.24, 8.1 3.12, 4.25 1.32 M10.67 6.55 C8.46 4.78, 6.17 2.89, 3.34 0.27" stroke="#ffc9c9" stroke-width="1" fill="none"></path><path d="M5.48 -0.16 C6.71 -0.34, 8.68 0.25, 9.52 0.99 C10.37 1.72, 10.48 3.12, 10.56 4.25 C10.64 5.37, 10.61 6.65, 10 7.73 C9.39 8.81, 8.19 10.35, 6.9 10.72 C5.61 11.08, 3.27 10.47, 2.28 9.92 C1.29 9.38, 1.47 8.41, 0.96 7.47 C0.45 6.54, -1.08 5.37, -0.77 4.32 C-0.46 3.27, 1.74 2.02, 2.81 1.19 C3.88 0.35, 5.05 -0.45, 5.64 -0.7 C6.22 -0.94, 6.31 -0.63, 6.34 -0.3 M2.7 0.85 C3.83 0.19, 7.04 -0.46, 8.14 -0.23 C9.25 -0.01, 9.07 0.9, 9.34 2.21 C9.61 3.51, 9.8 6.11, 9.76 7.59 C9.72 9.07, 9.79 10.49, 9.09 11.06 C8.38 11.64, 6.94 11.12, 5.54 11.05 C4.14 10.97, 1.46 11.38, 0.68 10.64 C-0.1 9.9, 0.85 8.08, 0.86 6.6 C0.88 5.12, 0.36 3.02, 0.77 1.75 C1.18 0.48, 2.87 -0.89, 3.31 -1 C3.75 -1.1, 3.46 0.86, 3.42 1.14" stroke="#2f9e44" stroke-width="2" fill="none"></path></g><g stroke-linecap="round" transform="translate(63.892940745166584 46.398674010847) rotate(0 5.384902640659163 5.384902640659192)"><path d="M0.18 2.81 C0.18 2.81, 0.18 2.81, 0.18 2.81 M0.18 2.81 C0.18 2.81, 0.18 2.81, 0.18 2.81 M3 10.63 C5.07 9.2, 9.67 6.03, 9.96 3.1 M3.39 11.44 C6.01 8.17, 8.71 4.84, 10.86 2.76 M1.2 9.29 C1.2 9.29, 1.2 9.29, 1.2 9.29 M1.2 9.29 C1.2 9.29, 1.2 9.29, 1.2 9.29 M9.44 6.18 C8.97 4.45, 7.89 3.4, 3.84 0.44 M10.2 6.88 C8.88 5.57, 7.55 3.7, 3.34 0.33" stroke="#a5d8ff" stroke-width="1" fill="none"></path><path d="M4.54 0.88 C5.59 0.62, 7.08 -0.25, 8.03 0.1 C8.99 0.44, 9.98 1.87, 10.25 2.95 C10.53 4.03, 10.08 5.5, 9.69 6.59 C9.29 7.67, 8.83 8.62, 7.88 9.46 C6.93 10.31, 5.18 11.73, 4 11.65 C2.83 11.57, 1.42 10.13, 0.85 8.98 C0.27 7.82, 0.62 5.75, 0.54 4.7 C0.45 3.64, -0.53 3.45, 0.32 2.64 C1.18 1.83, 4.63 0.37, 5.68 -0.16 C6.73 -0.69, 6.58 -0.58, 6.63 -0.56 M8.03 -0.81 C9.09 -0.37, 10.8 3.02, 11.42 4.31 C12.04 5.61, 12.07 6.04, 11.74 6.95 C11.4 7.86, 10.55 9.06, 9.41 9.79 C8.27 10.51, 6.38 11.24, 4.88 11.3 C3.38 11.37, 1.47 11.03, 0.42 10.19 C-0.63 9.35, -1.47 7.81, -1.42 6.27 C-1.37 4.72, -0.01 1.95, 0.71 0.92 C1.43 -0.1, 1.78 0.38, 2.89 0.11 C4 -0.16, 6.54 -0.55, 7.39 -0.68 C8.23 -0.81, 7.7 -1.1, 7.96 -0.67" stroke="#2f9e44" stroke-width="2" fill="none"></path></g><g stroke-linecap="round" transform="translate(86.77969796874049 16.229766761590213) rotate(0 5.384902640659163 5.384902640659163)"><path d="M1.48 2.62 C1.48 2.62, 1.48 2.62, 1.48 2.62 M1.48 2.62 C1.48 2.62, 1.48 2.62, 1.48 2.62 M4.87 9.91 C7.58 7.79, 10.14 5.1, 12.1 2.34 M5.1 10.58 C6.19 8.92, 7.86 7.42, 11.78 3.4 M1.47 8.98 C1.47 8.98, 1.47 8.98, 1.47 8.98 M1.47 8.98 C1.47 8.98, 1.47 8.98, 1.47 8.98 M11.12 5.63 C9.23 5.15, 7.23 2.23, 2.88 -0.54 M10.36 6.25 C8.2 3.99, 5.96 2.44, 4 0.61" stroke="#ffc9c9" stroke-width="1" fill="none"></path><path d="M8.18 1.23 C9.24 1.83, 10.99 2.42, 11.32 3.49 C11.65 4.57, 10.69 6.57, 10.14 7.68 C9.6 8.78, 8.99 9.69, 8.07 10.13 C7.15 10.57, 5.73 10.52, 4.63 10.33 C3.54 10.14, 2.24 9.75, 1.49 8.99 C0.74 8.24, 0.1 6.88, 0.12 5.79 C0.15 4.7, 0.83 3.5, 1.62 2.46 C2.42 1.41, 3.83 -0.32, 4.89 -0.48 C5.96 -0.65, 7.35 1.04, 8.02 1.46 C8.69 1.89, 9.03 2.1, 8.94 2.04 M4.59 0.83 C5.58 0.94, 8.5 1.71, 9.53 2.11 C10.57 2.52, 10.88 2.45, 10.79 3.26 C10.71 4.07, 9.75 5.9, 9 6.98 C8.26 8.05, 7.4 9.34, 6.35 9.71 C5.29 10.08, 3.7 9.35, 2.68 9.18 C1.66 9.02, 0.84 9.25, 0.22 8.7 C-0.4 8.15, -1.23 7.01, -1.06 5.9 C-0.89 4.79, 0.22 3.21, 1.22 2.04 C2.21 0.87, 4.2 -0.9, 4.91 -1.1 C5.63 -1.3, 5.47 0.38, 5.5 0.85" stroke="#2f9e44" stroke-width="2" fill="none"></path></g><g stroke-linecap="round" transform="translate(152.30036027690153 21.084533445378668) rotate(0 5.38490264065922 5.384902640659163)"><path d="M0.69 1.93 C0.69 1.93, 0.69 1.93, 0.69 1.93 M0.69 1.93 C0.69 1.93, 0.69 1.93, 0.69 1.93 M4.19 11.67 C5.09 8.69, 6.96 8.21, 10.08 2.74 M3.2 10.86 C5 8.25, 7.14 6.96, 10.57 2.94 M3.11 10.14 C3.11 10.14, 3.11 10.14, 3.11 10.14 M3.11 10.14 C3.11 10.14, 3.11 10.14, 3.11 10.14 M9.88 5.73 C9.57 4.15, 7.9 2.89, 3.72 -0.48 M11.09 6.43 C8.5 3.48, 6.15 1.5, 2.96 -0.52" stroke="#ffc9c9" stroke-width="1" fill="none"></path><path d="M5.53 0.42 C6.68 0.17, 8.06 -0.37, 8.9 0.16 C9.74 0.69, 10.39 2.53, 10.59 3.61 C10.79 4.7, 10.45 5.58, 10.12 6.68 C9.79 7.78, 9.77 9.61, 8.63 10.21 C7.5 10.82, 4.53 10.61, 3.32 10.32 C2.11 10.02, 1.99 9.34, 1.38 8.44 C0.77 7.54, -0.2 5.98, -0.34 4.92 C-0.47 3.86, -0.3 2.75, 0.58 2.06 C1.46 1.37, 4.13 1.01, 4.93 0.8 C5.73 0.59, 5.46 0.94, 5.38 0.8 M2.92 -0.82 C3.91 -1.44, 5.8 -1.19, 7.12 -0.39 C8.43 0.4, 10.18 2.84, 10.8 3.94 C11.41 5.03, 11.08 5, 10.83 6.19 C10.59 7.37, 10.47 10.17, 9.31 11.06 C8.15 11.95, 5.17 12, 3.86 11.52 C2.55 11.04, 2.28 8.89, 1.45 8.2 C0.63 7.51, -0.74 8.17, -1.08 7.37 C-1.43 6.57, -1.67 4.67, -0.61 3.41 C0.45 2.15, 4.35 0.37, 5.27 -0.2 C6.2 -0.77, 5.36 -0.04, 4.94 0" stroke="#2f9e44" stroke-width="2" fill="none"></path></g><g stroke-linecap="round" transform="translate(137.75474814851918 43.62452162011067) rotate(0 5.38490264065922 5.384902640659163)"><path d="M-0.52 3.52 C-0.52 3.52, -0.52 3.52, -0.52 3.52 M-0.52 3.52 C-0.52 3.52, -0.52 3.52, -0.52 3.52 M4.4 10.41 C5.92 7.93, 9.06 3.97, 11.16 2.75 M3.47 10.66 C5.45 8.69, 7.6 5.91, 11.19 2.76 M3.18 10.06 C3.18 10.06, 3.18 10.06, 3.18 10.06 M3.18 10.06 C3.18 10.06, 3.18 10.06, 3.18 10.06 M10.51 6.11 C8.96 3.34, 6.42 2.59, 3.68 0.66 M10.13 5.26 C8.12 3.19, 6.11 1.52, 3.82 0.2" stroke="#ffc9c9" stroke-width="1" fill="none"></path><path d="M5.74 -0.64 C7.11 -0.72, 8.36 1.05, 9.29 1.73 C10.21 2.41, 11.27 2.6, 11.27 3.45 C11.27 4.3, 9.91 5.71, 9.3 6.84 C8.68 7.97, 8.57 9.66, 7.59 10.23 C6.6 10.8, 4.51 10.64, 3.4 10.25 C2.3 9.85, 1.68 8.91, 0.97 7.85 C0.26 6.79, -0.9 4.84, -0.84 3.89 C-0.78 2.94, 0.06 2.78, 1.34 2.15 C2.63 1.52, 5.96 0.32, 6.87 0.1 C7.79 -0.13, 6.84 0.81, 6.83 0.8 M6.6 -0.68 C7.75 -0.76, 8.31 -0.42, 8.77 0.43 C9.23 1.28, 9 3.16, 9.36 4.43 C9.72 5.69, 11.17 6.84, 10.91 8.02 C10.65 9.2, 9.07 10.96, 7.79 11.49 C6.52 12.03, 4.21 11.99, 3.25 11.25 C2.29 10.5, 2.6 7.96, 2.04 7.03 C1.48 6.09, -0.3 6.79, -0.13 5.65 C0.03 4.51, 1.91 1.14, 3.04 0.19 C4.16 -0.76, 6.17 0.12, 6.61 -0.04 C7.04 -0.19, 6.05 -0.96, 5.65 -0.74" stroke="#2f9e44" stroke-width="2" fill="none"></path></g><g stroke-linecap="round" transform="translate(162.3753506163032 72.75312172284129) rotate(0 5.38490264065922 5.384902640659163)"><path d="M3.41 0.31 C3.41 0.31, 3.41 0.31, 3.41 0.31 M3.41 0.31 C3.41 0.31, 3.41 0.31, 3.41 0.31 M5.58 11.28 C6.21 9.27, 9.14 6.27, 11.97 2.37 M4.99 10.76 C7.45 7.88, 9.38 5.45, 10.98 3.77 M3.42 9.78 C3.42 9.78, 3.42 9.78, 3.42 9.78 M3.42 9.78 C3.42 9.78, 3.42 9.78, 3.42 9.78 M11.25 6.23 C8.65 3.4, 6.13 0.29, 3.36 0.54 M11.35 6.87 C10.27 4.76, 8.34 2.66, 4.21 -0.33" stroke="#ffc9c9" stroke-width="1" fill="none"></path><path d="M3.24 0.5 C3.95 -0.16, 4.51 -0.92, 5.64 -0.58 C6.78 -0.24, 9.21 1.59, 10.05 2.53 C10.89 3.47, 10.83 4.01, 10.68 5.06 C10.53 6.11, 10.05 7.92, 9.15 8.81 C8.25 9.7, 6.26 10.28, 5.26 10.4 C4.26 10.52, 3.84 10.13, 3.14 9.54 C2.44 8.95, 1.39 7.91, 1.05 6.86 C0.71 5.82, 0.66 4.32, 1.08 3.27 C1.51 2.22, 3.28 0.89, 3.58 0.56 C3.88 0.23, 2.76 1.13, 2.88 1.28 M2.9 0.35 C3.72 -0.22, 5.93 -1.39, 7.18 -1.04 C8.43 -0.69, 9.84 1.16, 10.42 2.45 C11 3.74, 11.06 5.58, 10.68 6.68 C10.31 7.79, 9.18 8.5, 8.17 9.09 C7.17 9.67, 5.62 10.19, 4.66 10.21 C3.69 10.22, 3.23 9.58, 2.36 9.18 C1.5 8.77, -0.23 8.98, -0.51 7.78 C-0.8 6.58, -0.05 3.28, 0.66 1.98 C1.37 0.68, 3.1 0.06, 3.77 -0.02 C4.44 -0.1, 4.84 1.34, 4.67 1.49" stroke="#2f9e44" stroke-width="2" fill="none"></path></g><g stroke-linecap="round" transform="translate(160.6415053720932 130.31678383061836) rotate(0 5.38490264065922 5.384902640659163)"><path d="M1.24 1.07 C1.24 1.07, 1.24 1.07, 1.24 1.07 M1.24 1.07 C1.24 1.07, 1.24 1.07, 1.24 1.07 M3.58 10.93 C5.22 7.08, 7.99 3.62, 11.99 1.2 M3.69 10.73 C6.99 7.72, 9.09 3.35, 11.41 1.22 M0.41 8.68 C0.41 8.68, 0.41 8.68, 0.41 8.68 M0.41 8.68 C0.41 8.68, 0.41 8.68, 0.41 8.68 M9.91 7.2 C8.73 5.56, 6.64 4.13, 4.76 2.13 M9.89 6.85 C8.58 5.56, 7.37 4.62, 4.42 1.52" stroke="#ffc9c9" stroke-width="1" fill="none"></path><path d="M5.67 0.99 C6.81 0.65, 8.65 -0.22, 9.45 0.33 C10.26 0.88, 10.43 2.94, 10.52 4.29 C10.6 5.64, 10.38 7.51, 9.97 8.42 C9.56 9.33, 8.96 9.3, 8.06 9.74 C7.16 10.18, 5.79 11.18, 4.57 11.05 C3.36 10.93, 1.69 9.91, 0.77 9 C-0.14 8.09, -0.94 6.88, -0.9 5.6 C-0.86 4.33, -0.28 2.29, 1 1.34 C2.28 0.4, 5.61 0.1, 6.8 -0.05 C7.99 -0.2, 8.35 0.25, 8.15 0.43 M2.17 1.51 C3.05 1.02, 6.47 1.17, 7.69 1.1 C8.9 1.02, 9.01 0.33, 9.49 1.06 C9.97 1.79, 10.85 3.96, 10.57 5.49 C10.28 7.01, 8.49 9.4, 7.77 10.24 C7.06 11.08, 6.99 10.83, 6.28 10.52 C5.56 10.21, 4.6 8.83, 3.48 8.36 C2.36 7.88, -0.19 8.59, -0.46 7.67 C-0.74 6.74, 1.29 4.14, 1.82 2.81 C2.34 1.48, 2.62 -0.03, 2.7 -0.33 C2.78 -0.63, 1.92 0.91, 2.27 1.03" stroke="#2f9e44" stroke-width="2" fill="none"></path></g><g stroke-linecap="round" transform="translate(194.97164120745424 95.63987894641542) rotate(0 5.38490264065922 5.384902640659163)"><path d="M-0.05 2.6 C-0.05 2.6, -0.05 2.6, -0.05 2.6 M-0.05 2.6 C-0.05 2.6, -0.05 2.6, -0.05 2.6 M3.21 11.66 C5.18 8.57, 7.78 4.8, 9.81 3.14 M3.38 11.2 C5.54 8.39, 8.89 4.38, 10.17 2.19 M2.92 10.36 C2.92 10.36, 2.92 10.36, 2.92 10.36 M2.92 10.36 C2.92 10.36, 2.92 10.36, 2.92 10.36 M10.04 6.66 C8.48 4.74, 6.18 3.96, 3.98 -0.36 M10.7 6.23 C7.82 4.02, 5.66 2.38, 3.37 0.46" stroke="#ffc9c9" stroke-width="1" fill="none"></path><path d="M7.35 -0.01 C8.54 0.21, 10.15 0.74, 10.57 1.95 C10.99 3.16, 10.27 6.02, 9.86 7.25 C9.46 8.47, 8.97 8.83, 8.16 9.31 C7.36 9.78, 5.94 9.93, 5.04 10.08 C4.14 10.24, 3.6 10.77, 2.77 10.23 C1.95 9.69, 0.57 8.11, 0.09 6.84 C-0.39 5.58, -0.66 3.66, -0.1 2.65 C0.46 1.65, 2.17 1.27, 3.45 0.82 C4.72 0.37, 6.61 -0.24, 7.55 -0.06 C8.49 0.11, 9.08 1.61, 9.1 1.85 M4.42 -0.94 C5.86 -0.99, 8.7 -0.15, 9.96 0.63 C11.22 1.42, 12.14 2.35, 12 3.77 C11.86 5.18, 10.01 7.77, 9.13 9.12 C8.26 10.48, 7.58 11.86, 6.76 11.91 C5.93 11.97, 5.44 10.04, 4.18 9.46 C2.93 8.88, 0.15 9.25, -0.77 8.44 C-1.69 7.62, -1.77 5.83, -1.33 4.57 C-0.88 3.31, 0.67 1.88, 1.9 0.89 C3.13 -0.1, 5.49 -1.07, 6.04 -1.36 C6.6 -1.66, 5.32 -1.18, 5.24 -0.89" stroke="#2f9e44" stroke-width="2" fill="none"></path></g><g stroke-linecap="round" transform="translate(121.8033719017858 175.04999113124046) rotate(0 5.3849026406591065 5.384902640659163)"><path d="M0.07 4.04 C0.07 4.04, 0.07 4.04, 0.07 4.04 M0.07 4.04 C0.07 4.04, 0.07 4.04, 0.07 4.04 M4.13 10.89 C7.68 8.09, 8.43 4.96, 10.7 3.27 M5.22 10.62 C6.69 9.19, 8.03 6.92, 11.58 3.48 M2.04 9.85 C2.04 9.85, 2.04 9.85, 2.04 9.85 M2.04 9.85 C2.04 9.85, 2.04 9.85, 2.04 9.85 M9.63 7.1 C8.21 3.83, 6.44 2.3, 3.75 0.85 M10.54 6.32 C7.75 4.38, 5.09 1.89, 3.12 0.75" stroke="#ffc9c9" stroke-width="1" fill="none"></path><path d="M6.83 0.16 C7.98 0.42, 10.16 1.54, 10.67 2.57 C11.19 3.6, 10.23 5.32, 9.94 6.33 C9.65 7.34, 9.56 7.76, 8.91 8.61 C8.26 9.45, 7.16 11.21, 6.02 11.41 C4.87 11.62, 3.07 10.76, 2.04 9.84 C1.01 8.93, 0.16 6.92, -0.16 5.94 C-0.48 4.96, -0.47 4.74, 0.13 3.97 C0.73 3.2, 2.24 1.75, 3.46 1.31 C4.67 0.87, 6.56 1.24, 7.43 1.32 C8.3 1.39, 8.88 1.85, 8.68 1.76 M6.02 0.5 C7.08 0.78, 8.08 2.42, 9.03 3.53 C9.98 4.63, 11.98 6.1, 11.72 7.11 C11.46 8.12, 8.39 9.2, 7.48 9.61 C6.56 10.01, 6.92 9.47, 6.23 9.55 C5.53 9.64, 4.52 10.86, 3.31 10.13 C2.09 9.4, -0.47 6.25, -1.07 5.17 C-1.67 4.08, -0.88 4.55, -0.29 3.62 C0.29 2.7, 0.97 0.32, 2.46 -0.38 C3.95 -1.08, 7.99 -0.87, 8.66 -0.58 C9.32 -0.3, 6.51 1.32, 6.45 1.32" stroke="#2f9e44" stroke-width="2" fill="none"></path></g><g stroke-linecap="round" transform="translate(130.10714115101155 139.67954814935337) rotate(0 5.3849026406591065 5.384902640659163)"><path d="M1.16 1.01 C1.16 1.01, 1.16 1.01, 1.16 1.01 M1.16 1.01 C1.16 1.01, 1.16 1.01, 1.16 1.01 M4.45 9.69 C6.39 7.22, 8.47 5.12, 10.23 3.84 M4.36 9.01 C6.08 7.71, 7.75 5.66, 9.97 3.23 M1.17 7.8 C1.17 7.8, 1.17 7.8, 1.17 7.8 M1.17 7.8 C1.17 7.8, 1.17 7.8, 1.17 7.8 M9.94 5.25 C7.43 3.77, 6.01 1.06, 4.2 0.14 M10.55 4.96 C8.9 4.11, 7.73 3, 4.08 -0.14" stroke="#ffc9c9" stroke-width="1" fill="none"></path><path d="M5.48 -0.38 C6.37 -0.76, 6.78 0.07, 7.54 0.8 C8.29 1.54, 9.6 2.94, 10.03 4.02 C10.47 5.09, 10.62 6.1, 10.13 7.24 C9.64 8.38, 7.99 10.4, 7.1 10.84 C6.2 11.27, 5.69 10.3, 4.76 9.85 C3.84 9.4, 2.32 8.78, 1.54 8.12 C0.76 7.46, 0.16 7.1, 0.1 5.91 C0.03 4.73, 0.41 2.1, 1.17 1 C1.93 -0.09, 3.83 -0.42, 4.67 -0.66 C5.52 -0.89, 6.09 -0.74, 6.24 -0.42 M8.38 0.72 C9.4 1.06, 9.18 2.83, 9.66 3.72 C10.15 4.6, 11.65 4.78, 11.29 6.03 C10.92 7.29, 8.36 10.39, 7.48 11.25 C6.6 12.12, 6.76 11.68, 6.02 11.22 C5.28 10.76, 4.12 9.48, 3.02 8.48 C1.92 7.47, 0.01 6.01, -0.58 5.2 C-1.18 4.4, -1.24 4.49, -0.54 3.65 C0.16 2.81, 2.18 0.75, 3.62 0.17 C5.05 -0.41, 7.35 0.05, 8.05 0.18 C8.75 0.32, 7.97 0.65, 7.8 0.97" stroke="#2f9e44" stroke-width="2" fill="none"></path></g><g stroke-linecap="round" transform="translate(99.26338372705368 62.003281208738315) rotate(0 5.384902640659163 5.384902640659163)"><path d="M2.66 -0.34 C2.66 -0.34, 2.66 -0.34, 2.66 -0.34 M2.66 -0.34 C2.66 -0.34, 2.66 -0.34, 2.66 -0.34 M4.27 10.33 C6.74 7.28, 8.11 4.83, 10.2 3.23 M3.68 10.07 C6.02 7.66, 8.69 5.05, 11.16 3.07 M1.42 9.03 C1.42 9.03, 1.42 9.03, 1.42 9.03 M1.42 9.03 C1.42 9.03, 1.42 9.03, 1.42 9.03 M10.2 6.41 C9.07 6.21, 6.72 2.79, 3.41 -1.12 M11.04 7.06 C8.72 4.87, 6.15 2.8, 2.7 -0.69" stroke="#ffc9c9" stroke-width="1" fill="none"></path><path d="M7.25 -0.08 C8.28 0.35, 9.89 2.09, 10.63 2.97 C11.36 3.84, 11.92 4.12, 11.69 5.17 C11.45 6.22, 10.14 8.31, 9.21 9.29 C8.28 10.26, 7.38 11.03, 6.11 11.01 C4.84 10.99, 2.47 10.09, 1.59 9.18 C0.72 8.27, 0.98 6.73, 0.86 5.55 C0.74 4.38, 0.62 3.07, 0.89 2.12 C1.17 1.16, 1.37 0.24, 2.5 -0.16 C3.63 -0.56, 6.83 -0.43, 7.65 -0.28 C8.47 -0.13, 7.49 0.57, 7.4 0.73 M2.76 -0.86 C3.71 -1.12, 5.97 0.97, 7.43 1.4 C8.89 1.82, 11.12 1.02, 11.54 1.69 C11.96 2.37, 10.55 4.3, 9.96 5.43 C9.38 6.56, 8.71 7.59, 8.03 8.48 C7.35 9.36, 7.17 10.72, 5.86 10.73 C4.55 10.74, 1.02 9.54, 0.16 8.51 C-0.71 7.49, 0.41 5.58, 0.68 4.57 C0.94 3.55, 1 3.11, 1.76 2.43 C2.51 1.75, 4.81 0.78, 5.19 0.5 C5.58 0.23, 4.32 0.57, 4.08 0.78" stroke="#2f9e44" stroke-width="2" fill="none"></path></g><g stroke-linecap="round"><g transform="translate(74.96086845137938 11.689945458776322) rotate(0 0 62.82386414102285)"><path d="M0 0 C0 20.94, 0 104.71, 0 125.65 M0 0 C0 20.94, 0 104.71, 0 125.65" stroke="#1e1e1e" stroke-width="2" fill="none"></path></g></g><mask></mask><g stroke-linecap="round"><g transform="translate(44.350649419224055 38.847819489093865) rotate(0 67.31128300823877 0)"><path d="M0 0 C22.44 0, 112.19 0, 134.62 0 M0 0 C22.44 0, 112.19 0, 134.62 0" stroke="#f08c00" stroke-width="2" fill="none"></path></g></g><mask></mask><g stroke-linecap="round"><g transform="translate(10 74.01691490947923) rotate(0 67.31128300823877 0)"><path d="M0 0 C22.44 0, 112.19 0, 134.62 0 M0 0 C22.44 0, 112.19 0, 134.62 0" stroke="#1e1e1e" stroke-width="2" fill="none"></path></g></g><mask></mask><g stroke-linecap="round"><g transform="translate(12.442254084211982 200.2185749140097) rotate(0 67.31128300823877 0)"><path d="M0 0 C22.44 0, 112.19 0, 134.62 0 M0 0 C22.44 0, 112.19 0, 134.62 0" stroke="#1e1e1e" stroke-width="2" fill="none"></path></g></g><mask></mask><g stroke-linecap="round"><g transform="translate(10.767947298188233 75.91707229212881) rotate(0 0 62.82386414102285)"><path d="M0 0 C0 20.94, 0 104.71, 0 125.65 M0 0 C0 20.94, 0 104.71, 0 125.65" stroke="#1e1e1e" stroke-width="2" fill="none"></path></g></g><mask></mask><g stroke-linecap="round"><g transform="translate(78.9292496109233 75.29406253719816) rotate(0 0 62.82386414102285)"><path d="M0 0 C0 20.94, 0 104.71, 0 125.65 M0 0 C0 20.94, 0 104.71, 0 125.65" stroke="#f08c00" stroke-width="2" fill="none"></path></g></g><mask></mask><g stroke-linecap="round"><g transform="translate(13.56967186507336 125.33094796991026) rotate(0 67.31128300823877 0)"><path d="M0 0 C22.44 0, 112.19 0, 134.62 0 M0 0 C22.44 0, 112.19 0, 134.62 0" stroke="#f08c00" stroke-width="2" fill="none"></path></g></g><mask></mask><g stroke-linecap="round"><g transform="translate(145.7350087416337 75.17885053667084) rotate(0 0 62.82386414102285)"><path d="M0 0 C0 20.94, 0 104.71, 0 125.65 M0 0 C0 20.94, 0 104.71, 0 125.65" stroke="#1e1e1e" stroke-width="2" fill="none"></path></g></g><mask></mask><g stroke-linecap="round"><g transform="translate(209.78088379729297 10.443772923028632) rotate(0 -32.53824808847355 32.538248088473466)"><path d="M0 0 C-10.85 10.85, -54.23 54.23, -65.08 65.08 M0 0 C-10.85 10.85, -54.23 54.23, -65.08 65.08" stroke="#1e1e1e" stroke-width="2" fill="none"></path></g></g><mask></mask></svg>